<svg xmlns="http://www.w3.org/2000/svg" xmlns:xlink="http://www.w3.org/1999/xlink" width="1080" zoomAndPan="magnify" viewBox="0 0 810 809.999993" height="1080" preserveAspectRatio="xMidYMid meet" version="1.0"><defs><clipPath id="cf565fe3cf"><path d="M 130.199219 0.269531 L 343.328125 0.269531 L 343.328125 374.914062 L 130.199219 374.914062 Z M 130.199219 0.269531 " clip-rule="nonzero"/></clipPath><clipPath id="b4206f6f77"><path d="M 130.199219 374.855469 C 246.289062 374.855469 343.328125 289.578125 343.328125 187.5625 C 343.328125 85.546875 246.289062 0.269531 130.199219 0.269531 Z M 130.199219 374.855469 " clip-rule="nonzero"/></clipPath><clipPath id="c0863fd19d"><path d="M 0.199219 0.269531 L 213.328125 0.269531 L 213.328125 374.914062 L 0.199219 374.914062 Z M 0.199219 0.269531 " clip-rule="nonzero"/></clipPath><clipPath id="0c1412ac38"><path d="M 0.199219 374.855469 C 116.289062 374.855469 213.328125 289.578125 213.328125 187.5625 C 213.328125 85.546875 116.289062 0.269531 0.199219 0.269531 Z M 0.199219 374.855469 " clip-rule="nonzero"/></clipPath><clipPath id="6ccf36aeee"><rect x="0" width="214" y="0" height="375"/></clipPath><clipPath id="74b17a5e6f"><path d="M 51.347656 0.273438 L 181.316406 0.273438 L 181.316406 374.960938 L 51.347656 374.960938 Z M 51.347656 0.273438 " clip-rule="nonzero"/></clipPath><clipPath id="debc87e1b2"><path d="M 78.347656 0.273438 L 154.316406 0.273438 C 161.480469 0.273438 168.347656 3.117188 173.410156 8.183594 C 178.472656 13.246094 181.316406 20.113281 181.316406 27.273438 L 181.316406 347.859375 C 181.316406 355.019531 178.472656 361.886719 173.410156 366.953125 C 168.347656 372.015625 161.480469 374.859375 154.316406 374.859375 L 78.347656 374.859375 C 71.183594 374.859375 64.316406 372.015625 59.253906 366.953125 C 54.191406 361.886719 51.347656 355.019531 51.347656 347.859375 L 51.347656 27.273438 C 51.347656 20.113281 54.191406 13.246094 59.253906 8.183594 C 64.316406 3.117188 71.183594 0.273438 78.347656 0.273438 Z M 78.347656 0.273438 " clip-rule="nonzero"/></clipPath><clipPath id="d8faafd88e"><path d="M 0.347656 0.273438 L 130.316406 0.273438 L 130.316406 374.960938 L 0.347656 374.960938 Z M 0.347656 0.273438 " clip-rule="nonzero"/></clipPath><clipPath id="fbaf210152"><path d="M 27.347656 0.273438 L 103.316406 0.273438 C 110.480469 0.273438 117.347656 3.117188 122.410156 8.183594 C 127.472656 13.246094 130.316406 20.113281 130.316406 27.273438 L 130.316406 347.859375 C 130.316406 355.019531 127.472656 361.886719 122.410156 366.953125 C 117.347656 372.015625 110.480469 374.859375 103.316406 374.859375 L 27.347656 374.859375 C 20.183594 374.859375 13.316406 372.015625 8.253906 366.953125 C 3.191406 361.886719 0.347656 355.019531 0.347656 347.859375 L 0.347656 27.273438 C 0.347656 20.113281 3.191406 13.246094 8.253906 8.183594 C 13.316406 3.117188 20.183594 0.273438 27.347656 0.273438 Z M 27.347656 0.273438 " clip-rule="nonzero"/></clipPath><clipPath id="77fb644a3d"><rect x="0" width="131" y="0" height="375"/></clipPath><clipPath id="8b3e5b4b7c"><path d="M 0.234375 0.273438 L 130.207031 0.273438 L 130.207031 374.859375 L 0.234375 374.859375 Z M 0.234375 0.273438 " clip-rule="nonzero"/></clipPath><clipPath id="de9bb848d1"><path d="M 0.234375 0.273438 L 130.207031 0.273438 L 130.207031 374.859375 L 0.234375 374.859375 Z M 0.234375 0.273438 " clip-rule="nonzero"/></clipPath><clipPath id="b9841f312d"><rect x="0" width="131" y="0" height="375"/></clipPath><clipPath id="da955bb8c8"><rect x="0" width="344" y="0" height="376"/></clipPath><clipPath id="f95798f566"><path d="M 130.625 1.136719 L 343.757812 1.136719 L 343.757812 375.78125 L 130.625 375.78125 Z M 130.625 1.136719 " clip-rule="nonzero"/></clipPath><clipPath id="92881e12c5"><path d="M 130.625 375.722656 C 246.714844 375.722656 343.757812 290.445312 343.757812 188.429688 C 343.757812 86.414062 246.714844 1.136719 130.625 1.136719 Z M 130.625 375.722656 " clip-rule="nonzero"/></clipPath><clipPath id="a551842f75"><path d="M 0.625 0.136719 L 213.757812 0.136719 L 213.757812 374.78125 L 0.625 374.78125 Z M 0.625 0.136719 " clip-rule="nonzero"/></clipPath><clipPath id="615772a12f"><path d="M 0.625 374.722656 C 116.714844 374.722656 213.757812 289.445312 213.757812 187.429688 C 213.757812 85.414062 116.714844 0.136719 0.625 0.136719 Z M 0.625 374.722656 " clip-rule="nonzero"/></clipPath><clipPath id="dad83e6801"><rect x="0" width="214" y="0" height="375"/></clipPath><clipPath id="e2cbabf359"><path d="M 51.773438 1.140625 L 181.746094 1.140625 L 181.746094 375.824219 L 51.773438 375.824219 Z M 51.773438 1.140625 " clip-rule="nonzero"/></clipPath><clipPath id="f2ff8c9b27"><path d="M 78.773438 1.140625 L 154.746094 1.140625 C 161.90625 1.140625 168.773438 3.984375 173.835938 9.046875 C 178.898438 14.113281 181.746094 20.980469 181.746094 28.140625 L 181.746094 348.726562 C 181.746094 355.886719 178.898438 362.753906 173.835938 367.816406 C 168.773438 372.882812 161.90625 375.726562 154.746094 375.726562 L 78.773438 375.726562 C 71.613281 375.726562 64.746094 372.882812 59.679688 367.816406 C 54.617188 362.753906 51.773438 355.886719 51.773438 348.726562 L 51.773438 28.140625 C 51.773438 20.980469 54.617188 14.113281 59.679688 9.046875 C 64.746094 3.984375 71.613281 1.140625 78.773438 1.140625 Z M 78.773438 1.140625 " clip-rule="nonzero"/></clipPath><clipPath id="58f146aad6"><path d="M 0.773438 0.140625 L 130.746094 0.140625 L 130.746094 374.824219 L 0.773438 374.824219 Z M 0.773438 0.140625 " clip-rule="nonzero"/></clipPath><clipPath id="8f5da0fe1e"><path d="M 27.773438 0.140625 L 103.746094 0.140625 C 110.90625 0.140625 117.773438 2.984375 122.835938 8.046875 C 127.898438 13.113281 130.746094 19.980469 130.746094 27.140625 L 130.746094 347.726562 C 130.746094 354.886719 127.898438 361.753906 122.835938 366.816406 C 117.773438 371.882812 110.90625 374.726562 103.746094 374.726562 L 27.773438 374.726562 C 20.613281 374.726562 13.746094 371.882812 8.679688 366.816406 C 3.617188 361.753906 0.773438 354.886719 0.773438 347.726562 L 0.773438 27.140625 C 0.773438 19.980469 3.617188 13.113281 8.679688 8.046875 C 13.746094 2.984375 20.613281 0.140625 27.773438 0.140625 Z M 27.773438 0.140625 " clip-rule="nonzero"/></clipPath><clipPath id="79a49e455b"><rect x="0" width="131" y="0" height="375"/></clipPath><clipPath id="a94a419772"><path d="M 0.660156 1.140625 L 130.632812 1.140625 L 130.632812 375.726562 L 0.660156 375.726562 Z M 0.660156 1.140625 " clip-rule="nonzero"/></clipPath><clipPath id="e600475dee"><path d="M 0.660156 0.140625 L 130.632812 0.140625 L 130.632812 374.726562 L 0.660156 374.726562 Z M 0.660156 0.140625 " clip-rule="nonzero"/></clipPath><clipPath id="76c6ed3a2f"><rect x="0" width="131" y="0" height="375"/></clipPath><clipPath id="009d4bcb7c"><rect x="0" width="344" y="0" height="376"/></clipPath><clipPath id="75374a080a"><path d="M 83.691406 26.34375 L 201.832031 26.34375 L 201.832031 174.941406 L 83.691406 174.941406 Z M 83.691406 26.34375 " clip-rule="nonzero"/></clipPath><clipPath id="1b2a7594f1"><path d="M 83.691406 174.859375 C 148.039062 174.859375 201.832031 141.046875 201.832031 100.601562 C 201.832031 60.152344 148.039062 26.34375 83.691406 26.34375 Z M 83.691406 174.859375 " clip-rule="nonzero"/></clipPath><clipPath id="987319d92f"><path d="M 0.691406 0.34375 L 118.832031 0.34375 L 118.832031 148.941406 L 0.691406 148.941406 Z M 0.691406 0.34375 " clip-rule="nonzero"/></clipPath><clipPath id="86d5e336f2"><path d="M 0.691406 148.859375 C 65.039062 148.859375 118.832031 115.046875 118.832031 74.601562 C 118.832031 34.152344 65.039062 0.34375 0.691406 0.34375 Z M 0.691406 148.859375 " clip-rule="nonzero"/></clipPath><clipPath id="9abdcb3463"><rect x="0" width="119" y="0" height="149"/></clipPath><clipPath id="ec145f5846"><path d="M 39.992188 26.34375 L 112.039062 26.34375 L 112.039062 174.9375 L 39.992188 174.9375 Z M 39.992188 26.34375 " clip-rule="nonzero"/></clipPath><clipPath id="b40e15a935"><path d="M 66.992188 26.34375 L 85.039062 26.34375 C 92.199219 26.34375 99.066406 29.1875 104.128906 34.253906 C 109.195312 39.316406 112.039062 46.183594 112.039062 53.34375 L 112.039062 147.859375 C 112.039062 155.019531 109.195312 161.886719 104.128906 166.953125 C 99.066406 172.015625 92.199219 174.859375 85.039062 174.859375 L 66.992188 174.859375 C 59.832031 174.859375 52.964844 172.015625 47.902344 166.953125 C 42.835938 161.886719 39.992188 155.019531 39.992188 147.859375 L 39.992188 53.34375 C 39.992188 46.183594 42.835938 39.316406 47.902344 34.253906 C 52.964844 29.1875 59.832031 26.34375 66.992188 26.34375 Z M 66.992188 26.34375 " clip-rule="nonzero"/></clipPath><clipPath id="7633a0a68f"><path d="M 0.992188 0.34375 L 73.039062 0.34375 L 73.039062 148.9375 L 0.992188 148.9375 Z M 0.992188 0.34375 " clip-rule="nonzero"/></clipPath><clipPath id="f692fc76ec"><path d="M 27.992188 0.34375 L 46.039062 0.34375 C 53.199219 0.34375 60.066406 3.1875 65.128906 8.253906 C 70.195312 13.316406 73.039062 20.183594 73.039062 27.34375 L 73.039062 121.859375 C 73.039062 129.019531 70.195312 135.886719 65.128906 140.953125 C 60.066406 146.015625 53.199219 148.859375 46.039062 148.859375 L 27.992188 148.859375 C 20.832031 148.859375 13.964844 146.015625 8.902344 140.953125 C 3.835938 135.886719 0.992188 129.019531 0.992188 121.859375 L 0.992188 27.34375 C 0.992188 20.183594 3.835938 13.316406 8.902344 8.253906 C 13.964844 3.1875 20.832031 0.34375 27.992188 0.34375 Z M 27.992188 0.34375 " clip-rule="nonzero"/></clipPath><clipPath id="9fcdd79d32"><rect x="0" width="74" y="0" height="149"/></clipPath><clipPath id="f3390a5c59"><path d="M 11.660156 26.34375 L 83.707031 26.34375 L 83.707031 174.859375 L 11.660156 174.859375 Z M 11.660156 26.34375 " clip-rule="nonzero"/></clipPath><clipPath id="436b601663"><path d="M 0.660156 0.34375 L 72.707031 0.34375 L 72.707031 148.859375 L 0.660156 148.859375 Z M 0.660156 0.34375 " clip-rule="nonzero"/></clipPath><clipPath id="ee49ced5d9"><rect x="0" width="73" y="0" height="149"/></clipPath><clipPath id="4e00ae4ad6"><path d="M 139.621094 26.34375 L 258.359375 26.34375 L 258.359375 136.082031 L 139.621094 136.082031 Z M 139.621094 26.34375 " clip-rule="nonzero"/></clipPath><clipPath id="44d6ce5331"><path d="M 139.773438 136.082031 C 204.367188 136.082031 258.359375 111.097656 258.359375 81.210938 C 258.359375 51.328125 204.367188 26.34375 139.773438 26.34375 Z M 139.773438 136.082031 " clip-rule="nonzero"/></clipPath><clipPath id="704980566a"><path d="M 0.679688 0.34375 L 119.359375 0.34375 L 119.359375 110.082031 L 0.679688 110.082031 Z M 0.679688 0.34375 " clip-rule="nonzero"/></clipPath><clipPath id="01afd1e94b"><path d="M 0.773438 110.082031 C 65.367188 110.082031 119.359375 85.097656 119.359375 55.210938 C 119.359375 25.328125 65.367188 0.34375 0.773438 0.34375 Z M 0.773438 110.082031 " clip-rule="nonzero"/></clipPath><clipPath id="a059bdaa5b"><rect x="0" width="120" y="0" height="111"/></clipPath><clipPath id="eaa7c5731a"><path d="M 95.910156 26.34375 L 168.226562 26.34375 L 168.226562 136.230469 L 95.910156 136.230469 Z M 95.910156 26.34375 " clip-rule="nonzero"/></clipPath><clipPath id="f9539efd4c"><path d="M 122.910156 26.34375 L 141.226562 26.34375 C 148.386719 26.34375 155.253906 29.1875 160.320312 34.253906 C 165.382812 39.316406 168.226562 46.183594 168.226562 53.34375 L 168.226562 109.082031 C 168.226562 116.242188 165.382812 123.109375 160.320312 128.171875 C 155.253906 133.238281 148.386719 136.082031 141.226562 136.082031 L 122.910156 136.082031 C 115.75 136.082031 108.882812 133.238281 103.820312 128.171875 C 98.753906 123.109375 95.910156 116.242188 95.910156 109.082031 L 95.910156 53.34375 C 95.910156 46.183594 98.753906 39.316406 103.820312 34.253906 C 108.882812 29.1875 115.75 26.34375 122.910156 26.34375 Z M 122.910156 26.34375 " clip-rule="nonzero"/></clipPath><clipPath id="b952757643"><path d="M 0.910156 0.34375 L 73.226562 0.34375 L 73.226562 110 L 0.910156 110 Z M 0.910156 0.34375 " clip-rule="nonzero"/></clipPath><clipPath id="565cf845e4"><path d="M 27.910156 0.34375 L 46.226562 0.34375 C 53.386719 0.34375 60.253906 3.1875 65.320312 8.253906 C 70.382812 13.316406 73.226562 20.183594 73.226562 27.34375 L 73.226562 83.082031 C 73.226562 90.242188 70.382812 97.109375 65.320312 102.171875 C 60.253906 107.238281 53.386719 110.082031 46.226562 110.082031 L 27.910156 110.082031 C 20.75 110.082031 13.882812 107.238281 8.820312 102.171875 C 3.753906 97.109375 0.910156 90.242188 0.910156 83.082031 L 0.910156 27.34375 C 0.910156 20.183594 3.753906 13.316406 8.820312 8.253906 C 13.882812 3.1875 20.75 0.34375 27.910156 0.34375 Z M 27.910156 0.34375 " clip-rule="nonzero"/></clipPath><clipPath id="c6d0910608"><rect x="0" width="74" y="0" height="111"/></clipPath><clipPath id="81b7e51890"><path d="M 67.472656 26.34375 L 139.789062 26.34375 L 139.789062 136.082031 L 67.472656 136.082031 Z M 67.472656 26.34375 " clip-rule="nonzero"/></clipPath><clipPath id="464908d6e7"><path d="M 0.472656 0.34375 L 72.789062 0.34375 L 72.789062 110 L 0.472656 110 Z M 0.472656 0.34375 " clip-rule="nonzero"/></clipPath><clipPath id="c636fa3981"><rect x="0" width="73" y="0" height="111"/></clipPath><clipPath id="2b530ab7a2"><path d="M 123 39 L 230 39 L 230 164 L 123 164 Z M 123 39 " clip-rule="nonzero"/></clipPath><clipPath id="5d9c3f849f"><path d="M 225.988281 34.226562 L 232.628906 158.183594 L 130.589844 163.648438 L 123.953125 39.691406 Z M 225.988281 34.226562 " clip-rule="nonzero"/></clipPath><clipPath id="b71021eb74"><path d="M 130.589844 163.632812 C 186.167969 160.65625 231.117188 129.953125 229.308594 96.195312 C 227.5 62.441406 179.53125 36.714844 123.953125 39.691406 Z M 130.589844 163.632812 " clip-rule="nonzero"/></clipPath><clipPath id="b4157f09f5"><path d="M 0.839844 0 L 107 0 L 107 124.761719 L 0.839844 124.761719 Z M 0.839844 0 " clip-rule="nonzero"/></clipPath><clipPath id="985dbcc577"><path d="M 102.988281 -4.773438 L 109.628906 119.183594 L 7.589844 124.648438 L 0.953125 0.691406 Z M 102.988281 -4.773438 " clip-rule="nonzero"/></clipPath><clipPath id="d66e65a311"><path d="M 7.589844 124.632812 C 63.167969 121.65625 108.117188 90.953125 106.308594 57.195312 C 104.5 23.441406 56.53125 -2.285156 0.953125 0.691406 Z M 7.589844 124.632812 " clip-rule="nonzero"/></clipPath><clipPath id="71465773e4"><rect x="0" width="107" y="0" height="125"/></clipPath><clipPath id="1bfb14a4fa"><path d="M 87 39 L 154 39 L 154 165 L 87 165 Z M 87 39 " clip-rule="nonzero"/></clipPath><clipPath id="cf386dc7a4"><path d="M 86.210938 41.71875 L 148.433594 38.386719 L 155.074219 162.347656 L 92.847656 165.679688 Z M 86.210938 41.71875 " clip-rule="nonzero"/></clipPath><clipPath id="2be8a5a7e0"><path d="M 113.171875 40.273438 L 121.472656 39.828125 C 128.625 39.445312 135.632812 41.921875 140.960938 46.707031 C 146.289062 51.492188 149.496094 58.195312 149.878906 65.347656 L 153.628906 135.367188 C 154.011719 142.515625 151.539062 149.527344 146.753906 154.855469 C 141.96875 160.179688 135.261719 163.390625 128.109375 163.773438 L 119.808594 164.21875 C 112.660156 164.601562 105.648438 162.125 100.320312 157.339844 C 94.996094 152.554688 91.789062 145.851562 91.402344 138.699219 L 87.652344 68.679688 C 87.269531 61.527344 89.746094 54.519531 94.53125 49.191406 C 99.316406 43.867188 106.019531 40.65625 113.171875 40.273438 Z M 113.171875 40.273438 " clip-rule="nonzero"/></clipPath><clipPath id="dc03a749d6"><path d="M 0.121094 0.441406 L 67 0.441406 L 67 125.71875 L 0.121094 125.71875 Z M 0.121094 0.441406 " clip-rule="nonzero"/></clipPath><clipPath id="9bc8d5c14d"><path d="M -0.789062 2.71875 L 61.433594 -0.613281 L 68.074219 123.347656 L 5.847656 126.679688 Z M -0.789062 2.71875 " clip-rule="nonzero"/></clipPath><clipPath id="784bc92928"><path d="M 26.171875 1.273438 L 34.472656 0.828125 C 41.625 0.445312 48.632812 2.921875 53.960938 7.707031 C 59.289062 12.492188 62.496094 19.195312 62.878906 26.347656 L 66.628906 96.367188 C 67.011719 103.515625 64.539062 110.527344 59.753906 115.855469 C 54.96875 121.179688 48.261719 124.390625 41.109375 124.773438 L 32.808594 125.21875 C 25.660156 125.601562 18.648438 123.125 13.320312 118.339844 C 7.996094 113.554688 4.789062 106.851562 4.402344 99.699219 L 0.652344 29.679688 C 0.269531 22.527344 2.746094 15.519531 7.53125 10.191406 C 12.316406 4.867188 19.019531 1.65625 26.171875 1.273438 Z M 26.171875 1.273438 " clip-rule="nonzero"/></clipPath><clipPath id="c6f44ed166"><rect x="0" width="67" y="0" height="126"/></clipPath><clipPath id="1d06b8483c"><path d="M 61 39 L 131 39 L 131 167 L 61 167 Z M 61 39 " clip-rule="nonzero"/></clipPath><clipPath id="65abfc762c"><path d="M 61.742188 43.027344 L 123.964844 39.695312 L 130.601562 163.640625 L 68.378906 166.972656 Z M 61.742188 43.027344 " clip-rule="nonzero"/></clipPath><clipPath id="17b9465112"><path d="M 0.679688 0.679688 L 69.800781 0.679688 L 69.800781 128 L 0.679688 128 Z M 0.679688 0.679688 " clip-rule="nonzero"/></clipPath><clipPath id="eeed948659"><path d="M 0.742188 4.027344 L 62.964844 0.695312 L 69.601562 124.640625 L 7.378906 127.972656 Z M 0.742188 4.027344 " clip-rule="nonzero"/></clipPath><clipPath id="fb5e1f2014"><rect x="0" width="70" y="0" height="128"/></clipPath><clipPath id="62c321faef"><path d="M 141 26 L 250 26 L 250 151 L 141 151 Z M 141 26 " clip-rule="nonzero"/></clipPath><clipPath id="059e9149f6"><path d="M 246.035156 20.855469 L 252.695312 145.203125 L 147.980469 150.808594 L 141.320312 26.464844 Z M 246.035156 20.855469 " clip-rule="nonzero"/></clipPath><clipPath id="31ddd0eab5"><path d="M 147.960938 150.40625 C 204.996094 147.351562 251.160156 116.582031 249.351562 82.828125 C 247.542969 49.074219 198.355469 23.410156 141.320312 26.464844 Z M 147.960938 150.40625 " clip-rule="nonzero"/></clipPath><clipPath id="76dbcf47bd"><path d="M 0.121094 0 L 109 0 L 109 124.558594 L 0.121094 124.558594 Z M 0.121094 0 " clip-rule="nonzero"/></clipPath><clipPath id="5097c05195"><path d="M 105.035156 -5.144531 L 111.695312 119.203125 L 6.980469 124.808594 L 0.320312 0.464844 Z M 105.035156 -5.144531 " clip-rule="nonzero"/></clipPath><clipPath id="76c80a3189"><path d="M 6.960938 124.40625 C 63.996094 121.351562 110.160156 90.582031 108.351562 56.828125 C 106.542969 23.074219 57.355469 -2.589844 0.320312 0.464844 Z M 6.960938 124.40625 " clip-rule="nonzero"/></clipPath><clipPath id="691e89ea74"><rect x="0" width="109" y="0" height="125"/></clipPath><clipPath id="29251b8b8e"><path d="M 103 26 L 172 26 L 172 152 L 103 152 Z M 103 26 " clip-rule="nonzero"/></clipPath><clipPath id="3a7ef4587d"><path d="M 102.585938 28.542969 L 166.441406 25.121094 L 173.082031 149.09375 L 109.226562 152.511719 Z M 102.585938 28.542969 " clip-rule="nonzero"/></clipPath><clipPath id="a09bf5ec02"><path d="M 129.546875 27.097656 L 139.480469 26.566406 C 146.628906 26.183594 153.640625 28.65625 158.96875 33.441406 C 164.292969 38.226562 167.503906 44.933594 167.886719 52.082031 L 171.636719 122.101562 C 172.019531 129.253906 169.546875 136.261719 164.761719 141.589844 C 159.972656 146.917969 153.269531 150.125 146.117188 150.507812 L 136.183594 151.039062 C 129.035156 151.421875 122.023438 148.949219 116.699219 144.164062 C 111.371094 139.378906 108.164062 132.675781 107.78125 125.523438 L 104.03125 55.503906 C 103.644531 48.351562 106.121094 41.34375 110.90625 36.015625 C 115.691406 30.6875 122.394531 27.480469 129.546875 27.097656 Z M 129.546875 27.097656 " clip-rule="nonzero"/></clipPath><clipPath id="3fd97868e4"><path d="M 0.441406 0 L 69 0 L 69 125.519531 L 0.441406 125.519531 Z M 0.441406 0 " clip-rule="nonzero"/></clipPath><clipPath id="ec11e8c634"><path d="M -0.414062 2.542969 L 63.441406 -0.878906 L 70.082031 123.09375 L 6.226562 126.511719 Z M -0.414062 2.542969 " clip-rule="nonzero"/></clipPath><clipPath id="47d3d44437"><path d="M 26.546875 1.097656 L 36.480469 0.566406 C 43.628906 0.183594 50.640625 2.65625 55.96875 7.441406 C 61.292969 12.226562 64.503906 18.933594 64.886719 26.082031 L 68.636719 96.101562 C 69.019531 103.253906 66.546875 110.261719 61.761719 115.589844 C 56.972656 120.917969 50.269531 124.125 43.117188 124.507812 L 33.183594 125.039062 C 26.035156 125.421875 19.023438 122.949219 13.699219 118.164062 C 8.371094 113.378906 5.164062 106.675781 4.78125 99.523438 L 1.03125 29.503906 C 0.644531 22.351562 3.121094 15.34375 7.90625 10.015625 C 12.691406 4.6875 19.394531 1.480469 26.546875 1.097656 Z M 26.546875 1.097656 " clip-rule="nonzero"/></clipPath><clipPath id="8463248e81"><rect x="0" width="69" y="0" height="126"/></clipPath><clipPath id="288dd8f6a3"><path d="M 77 26 L 148 26 L 148 154 L 77 154 Z M 77 26 " clip-rule="nonzero"/></clipPath><clipPath id="5583480f6a"><path d="M 77.472656 29.886719 L 141.328125 26.46875 L 147.96875 150.410156 L 84.113281 153.828125 Z M 77.472656 29.886719 " clip-rule="nonzero"/></clipPath><clipPath id="587c6d3713"><path d="M 0.28125 0.238281 L 71 0.238281 L 71 127.921875 L 0.28125 127.921875 Z M 0.28125 0.238281 " clip-rule="nonzero"/></clipPath><clipPath id="f38fbd7dc9"><path d="M 0.472656 3.886719 L 64.328125 0.46875 L 70.96875 124.410156 L 7.113281 127.828125 Z M 0.472656 3.886719 " clip-rule="nonzero"/></clipPath><clipPath id="0132025a52"><rect x="0" width="71" y="0" height="128"/></clipPath><clipPath id="40d2c8f597"><path d="M 158 29 L 256 29 L 256 141 L 158 141 Z M 158 29 " clip-rule="nonzero"/></clipPath><clipPath id="175d7beb6a"><path d="M 252.398438 24.449219 L 258.386719 136.234375 L 164.246094 141.277344 L 158.261719 29.488281 Z M 252.398438 24.449219 " clip-rule="nonzero"/></clipPath><clipPath id="0465898e53"><path d="M 164.226562 140.914062 C 215.503906 138.167969 257.007812 110.507812 255.382812 80.160156 C 253.757812 49.816406 209.535156 26.742188 158.261719 29.488281 Z M 164.226562 140.914062 " clip-rule="nonzero"/></clipPath><clipPath id="c6244a149c"><path d="M 0.160156 0 L 98 0 L 98 111.960938 L 0.160156 111.960938 Z M 0.160156 0 " clip-rule="nonzero"/></clipPath><clipPath id="778c6c3988"><path d="M 94.398438 -4.550781 L 100.386719 107.234375 L 6.246094 112.277344 L 0.261719 0.488281 Z M 94.398438 -4.550781 " clip-rule="nonzero"/></clipPath><clipPath id="d602270c03"><path d="M 6.226562 111.914062 C 57.503906 109.167969 99.007812 81.507812 97.382812 51.160156 C 95.757812 20.816406 51.535156 -2.257812 0.261719 0.488281 Z M 6.226562 111.914062 " clip-rule="nonzero"/></clipPath><clipPath id="2fe4c890c1"><rect x="0" width="98" y="0" height="112"/></clipPath><clipPath id="6bf074be74"><path d="M 124 29 L 186 29 L 186 142 L 124 142 Z M 124 29 " clip-rule="nonzero"/></clipPath><clipPath id="04e6e20604"><path d="M 123.4375 31.351562 L 180.84375 28.273438 L 186.8125 139.726562 L 129.40625 142.800781 Z M 123.4375 31.351562 " clip-rule="nonzero"/></clipPath><clipPath id="fd6790c258"><path d="M 150.398438 29.90625 L 153.882812 29.71875 C 168.773438 28.921875 181.492188 40.347656 182.289062 55.234375 L 185.367188 112.738281 C 186.167969 127.628906 174.742188 140.347656 159.851562 141.144531 L 156.367188 141.332031 C 141.476562 142.128906 128.757812 130.703125 127.960938 115.8125 L 124.882812 58.3125 C 124.085938 43.421875 135.507812 30.703125 150.398438 29.90625 Z M 150.398438 29.90625 " clip-rule="nonzero"/></clipPath><clipPath id="97871e9ed0"><path d="M 0.078125 0 L 62 0 L 62 113 L 0.078125 113 Z M 0.078125 0 " clip-rule="nonzero"/></clipPath><clipPath id="f4f9cbe457"><path d="M -0.5625 2.351562 L 56.84375 -0.726562 L 62.8125 110.726562 L 5.40625 113.800781 Z M -0.5625 2.351562 " clip-rule="nonzero"/></clipPath><clipPath id="6cf371eb00"><path d="M 26.398438 0.90625 L 29.882812 0.71875 C 44.773438 -0.078125 57.492188 11.347656 58.289062 26.234375 L 61.367188 83.738281 C 62.167969 98.628906 50.742188 111.347656 35.851562 112.144531 L 32.367188 112.332031 C 17.476562 113.128906 4.757812 101.703125 3.960938 86.8125 L 0.882812 29.3125 C 0.0859375 14.421875 11.507812 1.703125 26.398438 0.90625 Z M 26.398438 0.90625 " clip-rule="nonzero"/></clipPath><clipPath id="63dc279835"><rect x="0" width="62" y="0" height="113"/></clipPath><clipPath id="968fe8b64a"><path d="M 100 29 L 165 29 L 165 144 L 100 144 Z M 100 29 " clip-rule="nonzero"/></clipPath><clipPath id="dd35809e24"><path d="M 100.863281 32.558594 L 158.269531 29.484375 L 164.238281 140.910156 L 106.832031 143.984375 Z M 100.863281 32.558594 " clip-rule="nonzero"/></clipPath><clipPath id="c7d4d1c513"><path d="M 0.800781 0.359375 L 64.398438 0.359375 L 64.398438 115 L 0.800781 115 Z M 0.800781 0.359375 " clip-rule="nonzero"/></clipPath><clipPath id="8216497a6d"><path d="M 0.863281 3.558594 L 58.269531 0.484375 L 64.238281 111.910156 L 6.832031 114.984375 Z M 0.863281 3.558594 " clip-rule="nonzero"/></clipPath><clipPath id="601ce70ed6"><rect x="0" width="65" y="0" height="115"/></clipPath><clipPath id="fb0f70c257"><path d="M 112 58 L 211 58 L 211 170 L 112 170 Z M 112 58 " clip-rule="nonzero"/></clipPath><clipPath id="551e1652fc"><path d="M 207 53.476562 L 212.988281 165.261719 L 118.847656 170.304688 L 112.863281 58.519531 Z M 207 53.476562 " clip-rule="nonzero"/></clipPath><clipPath id="e66df83e8b"><path d="M 118.828125 169.945312 C 170.105469 167.199219 211.609375 139.535156 209.984375 109.1875 C 208.359375 78.84375 164.136719 55.769531 112.863281 58.519531 Z M 118.828125 169.945312 " clip-rule="nonzero"/></clipPath><clipPath id="33ace51465"><path d="M 0.800781 0 L 99 0 L 99 112 L 0.800781 112 Z M 0.800781 0 " clip-rule="nonzero"/></clipPath><clipPath id="6159b26950"><path d="M 95 -4.523438 L 100.988281 107.261719 L 6.847656 112.304688 L 0.863281 0.519531 Z M 95 -4.523438 " clip-rule="nonzero"/></clipPath><clipPath id="d80453b958"><path d="M 6.828125 111.945312 C 58.105469 109.199219 99.609375 81.535156 97.984375 51.1875 C 96.359375 20.84375 52.136719 -2.230469 0.863281 0.519531 Z M 6.828125 111.945312 " clip-rule="nonzero"/></clipPath><clipPath id="03b32488a9"><rect x="0" width="99" y="0" height="112"/></clipPath><clipPath id="2be80ce2be"><path d="M 141 42 L 239 42 L 239 154 L 141 154 Z M 141 42 " clip-rule="nonzero"/></clipPath><clipPath id="0a7a0d41e1"><path d="M 235.308594 37.367188 L 241.296875 149.15625 L 147.160156 154.199219 L 141.171875 42.410156 Z M 235.308594 37.367188 " clip-rule="nonzero"/></clipPath><clipPath id="d67de9c703"><path d="M 147.140625 153.835938 C 198.417969 151.089844 239.917969 123.425781 238.292969 93.082031 C 236.667969 62.734375 192.449219 39.664062 141.171875 42.410156 Z M 147.140625 153.835938 " clip-rule="nonzero"/></clipPath><clipPath id="e855fe8e01"><path d="M 0.121094 0 L 98 0 L 98 111.921875 L 0.121094 111.921875 Z M 0.121094 0 " clip-rule="nonzero"/></clipPath><clipPath id="f5a98fb6d7"><path d="M 94.308594 -4.632812 L 100.296875 107.15625 L 6.160156 112.199219 L 0.171875 0.410156 Z M 94.308594 -4.632812 " clip-rule="nonzero"/></clipPath><clipPath id="1717038d00"><path d="M 6.140625 111.835938 C 57.417969 109.089844 98.917969 81.425781 97.292969 51.082031 C 95.667969 20.734375 51.449219 -2.335938 0.171875 0.410156 Z M 6.140625 111.835938 " clip-rule="nonzero"/></clipPath><clipPath id="aab636319c"><rect x="0" width="98" y="0" height="112"/></clipPath><clipPath id="498579cd46"><path d="M 70 59 L 176 59 L 176 173 L 70 173 Z M 70 59 " clip-rule="nonzero"/></clipPath><clipPath id="fc9d03b303"><path d="M 187.679688 81.523438 L 161.945312 190.472656 L 70.199219 168.804688 L 95.933594 59.851562 Z M 187.679688 81.523438 " clip-rule="nonzero"/></clipPath><clipPath id="a491b1359d"><path d="M 70.28125 168.449219 C 120.257812 180.253906 167.871094 165.398438 174.855469 135.820312 C 181.839844 106.246094 145.90625 71.65625 95.933594 59.851562 Z M 70.28125 168.449219 " clip-rule="nonzero"/></clipPath><clipPath id="a269d88307"><path d="M 0.078125 0.839844 L 106 0.839844 L 106 114 L 0.078125 114 Z M 0.078125 0.839844 " clip-rule="nonzero"/></clipPath><clipPath id="260e2e5ea1"><path d="M 117.679688 22.523438 L 91.945312 131.472656 L 0.199219 109.804688 L 25.933594 0.851562 Z M 117.679688 22.523438 " clip-rule="nonzero"/></clipPath><clipPath id="7dcc1918f0"><path d="M 0.28125 109.449219 C 50.257812 121.253906 97.871094 106.398438 104.855469 76.820312 C 111.839844 47.246094 75.90625 12.65625 25.933594 0.851562 Z M 0.28125 109.449219 " clip-rule="nonzero"/></clipPath><clipPath id="76fa20cdd7"><rect x="0" width="106" y="0" height="114"/></clipPath><clipPath id="630c178ba2"><path d="M 0.71875 25 L 307.679688 25 L 307.679688 213 L 0.71875 213 Z M 0.71875 25 " clip-rule="nonzero"/></clipPath><clipPath id="da99ce1032"><path d="M 99 0.078125 L 307.679688 0.078125 L 307.679688 112 L 99 112 Z M 99 0.078125 " clip-rule="nonzero"/></clipPath><clipPath id="41b1147677"><path d="M 233 49 L 272 49 L 272 90 L 233 90 Z M 233 49 " clip-rule="nonzero"/></clipPath><clipPath id="c9d53707d1"><path d="M 222.691406 58.425781 L 244.480469 39.757812 L 271.167969 70.910156 L 249.382812 89.578125 Z M 222.691406 58.425781 " clip-rule="nonzero"/></clipPath><clipPath id="66b8ca2383"><path d="M 233.585938 49.09375 L 271.160156 70.894531 L 249.371094 89.5625 Z M 233.585938 49.09375 " clip-rule="nonzero"/></clipPath><clipPath id="e416bd07a9"><path d="M 0.519531 0.0390625 L 38.199219 0.0390625 L 38.199219 40.601562 L 0.519531 40.601562 Z M 0.519531 0.0390625 " clip-rule="nonzero"/></clipPath><clipPath id="a37b40e959"><path d="M -10.308594 9.425781 L 11.480469 -9.242188 L 38.167969 21.910156 L 16.382812 40.578125 Z M -10.308594 9.425781 " clip-rule="nonzero"/></clipPath><clipPath id="d0a2f96758"><path d="M 0.585938 0.09375 L 38.160156 21.894531 L 16.371094 40.5625 Z M 0.585938 0.09375 " clip-rule="nonzero"/></clipPath><clipPath id="f313281984"><rect x="0" width="39" y="0" height="41"/></clipPath><clipPath id="e1623d3468"><rect x="0" width="308" y="0" height="231"/></clipPath></defs><g transform="matrix(1, 0, 0, 1, 203, 104)"><g clip-path="url(#da955bb8c8)"><g clip-path="url(#cf565fe3cf)"><g clip-path="url(#b4206f6f77)"><g transform="matrix(1, 0, 0, 1, 130, 0.000000000000042633)"><g clip-path="url(#6ccf36aeee)"><g clip-path="url(#c0863fd19d)"><g clip-path="url(#0c1412ac38)"><path fill="#ffffff" d="M 213.328125 0.269531 L 213.328125 374.914062 L 0.199219 374.914062 L 0.199219 0.269531 Z M 213.328125 0.269531 " fill-opacity="1" fill-rule="nonzero"/></g></g></g></g></g></g><g clip-path="url(#74b17a5e6f)"><g clip-path="url(#debc87e1b2)"><g transform="matrix(1, 0, 0, 1, 51, 0.000000000000042633)"><g clip-path="url(#77fb644a3d)"><g clip-path="url(#d8faafd88e)"><g clip-path="url(#fbaf210152)"><path fill="#ffffff" d="M 0.347656 0.273438 L 130.316406 0.273438 L 130.316406 374.960938 L 0.347656 374.960938 Z M 0.347656 0.273438 " fill-opacity="1" fill-rule="nonzero"/></g></g></g></g></g></g><g clip-path="url(#8b3e5b4b7c)"><g transform="matrix(1, 0, 0, 1, 0, 0.000000000000042633)"><g clip-path="url(#b9841f312d)"><g clip-path="url(#de9bb848d1)"><path fill="#ffffff" d="M 0.234375 0.273438 L 130.207031 0.273438 L 130.207031 374.960938 L 0.234375 374.960938 Z M 0.234375 0.273438 " fill-opacity="1" fill-rule="nonzero"/></g></g></g></g></g></g><g transform="matrix(1, 0, 0, 1, 263, 330)"><g clip-path="url(#009d4bcb7c)"><g clip-path="url(#f95798f566)"><g clip-path="url(#92881e12c5)"><g transform="matrix(1, 0, 0, 1, 130, 1)"><g clip-path="url(#dad83e6801)"><g clip-path="url(#a551842f75)"><g clip-path="url(#615772a12f)"><path fill="#f6fafd" d="M 213.757812 0.136719 L 213.757812 374.78125 L 0.625 374.78125 L 0.625 0.136719 Z M 213.757812 0.136719 " fill-opacity="1" fill-rule="nonzero"/></g></g></g></g></g></g><g clip-path="url(#e2cbabf359)"><g clip-path="url(#f2ff8c9b27)"><g transform="matrix(1, 0, 0, 1, 51, 1)"><g clip-path="url(#79a49e455b)"><g clip-path="url(#58f146aad6)"><g clip-path="url(#8f5da0fe1e)"><path fill="#f6fafd" d="M 0.773438 0.140625 L 130.746094 0.140625 L 130.746094 374.824219 L 0.773438 374.824219 Z M 0.773438 0.140625 " fill-opacity="1" fill-rule="nonzero"/></g></g></g></g></g></g><g clip-path="url(#a94a419772)"><g transform="matrix(1, 0, 0, 1, -0.000000000000056843, 1)"><g clip-path="url(#76c6ed3a2f)"><g clip-path="url(#e600475dee)"><path fill="#f6fafd" d="M 0.660156 0.140625 L 130.632812 0.140625 L 130.632812 374.824219 L 0.660156 374.824219 Z M 0.660156 0.140625 " fill-opacity="1" fill-rule="nonzero"/></g></g></g></g></g></g><g transform="matrix(1, 0, 0, 1, 252, 304)"><g clip-path="url(#e1623d3468)"><g clip-path="url(#75374a080a)"><g clip-path="url(#1b2a7594f1)"><g transform="matrix(1, 0, 0, 1, 83, 26)"><g clip-path="url(#9abdcb3463)"><g clip-path="url(#987319d92f)"><g clip-path="url(#86d5e336f2)"><path fill="#000000" d="M 118.832031 0.34375 L 118.832031 148.941406 L 0.691406 148.941406 L 0.691406 0.34375 Z M 118.832031 0.34375 " fill-opacity="1" fill-rule="nonzero"/></g></g></g></g></g></g><g clip-path="url(#ec145f5846)"><g clip-path="url(#b40e15a935)"><g transform="matrix(1, 0, 0, 1, 39, 26)"><g clip-path="url(#9fcdd79d32)"><g clip-path="url(#7633a0a68f)"><g clip-path="url(#f692fc76ec)"><path fill="#000000" d="M 0.992188 0.34375 L 73.039062 0.34375 L 73.039062 148.9375 L 0.992188 148.9375 Z M 0.992188 0.34375 " fill-opacity="1" fill-rule="nonzero"/></g></g></g></g></g></g><g clip-path="url(#f3390a5c59)"><g transform="matrix(1, 0, 0, 1, 11, 26)"><g clip-path="url(#ee49ced5d9)"><g clip-path="url(#436b601663)"><path fill="#000000" d="M 0.660156 0.34375 L 72.707031 0.34375 L 72.707031 148.9375 L 0.660156 148.9375 Z M 0.660156 0.34375 " fill-opacity="1" fill-rule="nonzero"/></g></g></g></g><g clip-path="url(#4e00ae4ad6)"><g clip-path="url(#44d6ce5331)"><g transform="matrix(1, 0, 0, 1, 139, 26)"><g clip-path="url(#a059bdaa5b)"><g clip-path="url(#704980566a)"><g clip-path="url(#01afd1e94b)"><path fill="#000000" d="M 119.359375 0.34375 L 119.359375 110.082031 L 0.621094 110.082031 L 0.621094 0.34375 Z M 119.359375 0.34375 " fill-opacity="1" fill-rule="nonzero"/></g></g></g></g></g></g><g clip-path="url(#eaa7c5731a)"><g clip-path="url(#f9539efd4c)"><g transform="matrix(1, 0, 0, 1, 95, 26)"><g clip-path="url(#c6d0910608)"><g clip-path="url(#b952757643)"><g clip-path="url(#565cf845e4)"><path fill="#000000" d="M 0.910156 0.34375 L 73.226562 0.34375 L 73.226562 109.949219 L 0.910156 109.949219 Z M 0.910156 0.34375 " fill-opacity="1" fill-rule="nonzero"/></g></g></g></g></g></g><g clip-path="url(#81b7e51890)"><g transform="matrix(1, 0, 0, 1, 67, 26)"><g clip-path="url(#c636fa3981)"><g clip-path="url(#464908d6e7)"><path fill="#000000" d="M 0.472656 0.34375 L 72.789062 0.34375 L 72.789062 109.949219 L 0.472656 109.949219 Z M 0.472656 0.34375 " fill-opacity="1" fill-rule="nonzero"/></g></g></g></g><g clip-path="url(#2b530ab7a2)"><g clip-path="url(#5d9c3f849f)"><g clip-path="url(#b71021eb74)"><g transform="matrix(1, 0, 0, 1, 123, 39)"><g clip-path="url(#71465773e4)"><g clip-path="url(#b4157f09f5)"><g clip-path="url(#985dbcc577)"><g clip-path="url(#d66e65a311)"><path fill="#000000" d="M 102.988281 -4.773438 L 109.628906 119.183594 L 7.589844 124.648438 L 0.953125 0.691406 Z M 102.988281 -4.773438 " fill-opacity="1" fill-rule="nonzero"/></g></g></g></g></g></g></g></g><g clip-path="url(#1bfb14a4fa)"><g clip-path="url(#cf386dc7a4)"><g clip-path="url(#2be8a5a7e0)"><g transform="matrix(1, 0, 0, 1, 87, 39)"><g clip-path="url(#c6f44ed166)"><g clip-path="url(#dc03a749d6)"><g clip-path="url(#9bc8d5c14d)"><g clip-path="url(#784bc92928)"><path fill="#000000" d="M -0.789062 2.71875 L 61.433594 -0.613281 L 68.074219 123.347656 L 5.847656 126.679688 Z M -0.789062 2.71875 " fill-opacity="1" fill-rule="nonzero"/></g></g></g></g></g></g></g></g><g clip-path="url(#1d06b8483c)"><g clip-path="url(#65abfc762c)"><g transform="matrix(1, 0, 0, 1, 61, 39)"><g clip-path="url(#fb5e1f2014)"><g clip-path="url(#17b9465112)"><g clip-path="url(#eeed948659)"><path fill="#000000" d="M 0.742188 4.027344 L 62.964844 0.695312 L 69.605469 124.660156 L 7.378906 127.992188 Z M 0.742188 4.027344 " fill-opacity="1" fill-rule="nonzero"/></g></g></g></g></g></g><g clip-path="url(#62c321faef)"><g clip-path="url(#059e9149f6)"><g clip-path="url(#31ddd0eab5)"><g transform="matrix(1, 0, 0, 1, 141, 26)"><g clip-path="url(#691e89ea74)"><g clip-path="url(#76dbcf47bd)"><g clip-path="url(#5097c05195)"><g clip-path="url(#76c80a3189)"><path fill="#000000" d="M 105.035156 -5.144531 L 111.671875 118.792969 L 6.960938 124.402344 L 0.320312 0.464844 Z M 105.035156 -5.144531 " fill-opacity="1" fill-rule="nonzero"/></g></g></g></g></g></g></g></g><g clip-path="url(#29251b8b8e)"><g clip-path="url(#3a7ef4587d)"><g clip-path="url(#a09bf5ec02)"><g transform="matrix(1, 0, 0, 1, 103, 26)"><g clip-path="url(#8463248e81)"><g clip-path="url(#3fd97868e4)"><g clip-path="url(#ec11e8c634)"><g clip-path="url(#47d3d44437)"><path fill="#000000" d="M -0.414062 2.542969 L 63.441406 -0.878906 L 70.082031 123.09375 L 6.226562 126.511719 Z M -0.414062 2.542969 " fill-opacity="1" fill-rule="nonzero"/></g></g></g></g></g></g></g></g><g clip-path="url(#288dd8f6a3)"><g clip-path="url(#5583480f6a)"><g transform="matrix(1, 0, 0, 1, 77, 26)"><g clip-path="url(#0132025a52)"><g clip-path="url(#587c6d3713)"><g clip-path="url(#f38fbd7dc9)"><path fill="#000000" d="M 0.472656 3.886719 L 64.328125 0.46875 L 70.96875 124.4375 L 7.113281 127.855469 Z M 0.472656 3.886719 " fill-opacity="1" fill-rule="nonzero"/></g></g></g></g></g></g><g clip-path="url(#40d2c8f597)"><g clip-path="url(#175d7beb6a)"><g clip-path="url(#0465898e53)"><g transform="matrix(1, 0, 0, 1, 158, 29)"><g clip-path="url(#2fe4c890c1)"><g clip-path="url(#c6244a149c)"><g clip-path="url(#778c6c3988)"><g clip-path="url(#d602270c03)"><path fill="#000000" d="M 94.398438 -4.550781 L 100.363281 106.867188 L 6.226562 111.910156 L 0.261719 0.488281 Z M 94.398438 -4.550781 " fill-opacity="1" fill-rule="nonzero"/></g></g></g></g></g></g></g></g><g clip-path="url(#6bf074be74)"><g clip-path="url(#04e6e20604)"><g clip-path="url(#fd6790c258)"><g transform="matrix(1, 0, 0, 1, 124, 29)"><g clip-path="url(#63dc279835)"><g clip-path="url(#97871e9ed0)"><g clip-path="url(#f4f9cbe457)"><g clip-path="url(#6cf371eb00)"><path fill="#000000" d="M -0.5625 2.351562 L 56.84375 -0.726562 L 62.8125 110.726562 L 5.40625 113.800781 Z M -0.5625 2.351562 " fill-opacity="1" fill-rule="nonzero"/></g></g></g></g></g></g></g></g><g clip-path="url(#968fe8b64a)"><g clip-path="url(#dd35809e24)"><g transform="matrix(1, 0, 0, 1, 100, 29)"><g clip-path="url(#601ce70ed6)"><g clip-path="url(#c7d4d1c513)"><g clip-path="url(#8216497a6d)"><path fill="#000000" d="M 0.863281 3.558594 L 58.269531 0.484375 L 64.238281 111.933594 L 6.832031 115.007812 Z M 0.863281 3.558594 " fill-opacity="1" fill-rule="nonzero"/></g></g></g></g></g></g><g clip-path="url(#fb0f70c257)"><g clip-path="url(#551e1652fc)"><g clip-path="url(#e66df83e8b)"><g transform="matrix(1, 0, 0, 1, 112, 58)"><g clip-path="url(#03b32488a9)"><g clip-path="url(#33ace51465)"><g clip-path="url(#6159b26950)"><g clip-path="url(#d80453b958)"><path fill="#000000" d="M 95 -4.523438 L 100.96875 106.894531 L 6.828125 111.9375 L 0.863281 0.519531 Z M 95 -4.523438 " fill-opacity="1" fill-rule="nonzero"/></g></g></g></g></g></g></g></g><g clip-path="url(#2be80ce2be)"><g clip-path="url(#0a7a0d41e1)"><g clip-path="url(#d67de9c703)"><g transform="matrix(1, 0, 0, 1, 141, 42)"><g clip-path="url(#aab636319c)"><g clip-path="url(#e855fe8e01)"><g clip-path="url(#f5a98fb6d7)"><g clip-path="url(#1717038d00)"><path fill="#000000" d="M 94.308594 -4.632812 L 100.277344 106.789062 L 6.140625 111.828125 L 0.171875 0.410156 Z M 94.308594 -4.632812 " fill-opacity="1" fill-rule="nonzero"/></g></g></g></g></g></g></g></g><g clip-path="url(#498579cd46)"><g clip-path="url(#fc9d03b303)"><g clip-path="url(#a491b1359d)"><g transform="matrix(1, 0, 0, 1, 70, 59)"><g clip-path="url(#76fa20cdd7)"><g clip-path="url(#a269d88307)"><g clip-path="url(#260e2e5ea1)"><g clip-path="url(#7dcc1918f0)"><path fill="#000000" d="M 117.679688 22.523438 L 92.03125 131.117188 L 0.285156 109.445312 L 25.933594 0.851562 Z M 117.679688 22.523438 " fill-opacity="1" fill-rule="nonzero"/></g></g></g></g></g></g></g></g><g clip-path="url(#630c178ba2)"><path stroke-linecap="butt" transform="matrix(1.65389, -0.689474, 0.689474, 1.65389, 18.91748, 166.945387)" fill="none" stroke-linejoin="miter" d="M 0.948083 1.760345 C 61.455346 34.322912 111.557148 34.323477 151.251476 1.761201 " stroke="#000000" stroke-width="4" stroke-opacity="1" stroke-miterlimit="4"/></g><g clip-path="url(#da99ce1032)"><path stroke-linecap="butt" transform="matrix(1.713912, 0.522718, -0.522718, 1.713912, 143.30887, 14.722494)" fill="none" stroke-linejoin="miter" d="M 0.692588 9.071814 C 26.247233 -0.356122 51.802752 -0.35779 77.358332 9.071616 " stroke="#000000" stroke-width="4" stroke-opacity="1" stroke-miterlimit="4"/></g><g clip-path="url(#41b1147677)"><g clip-path="url(#c9d53707d1)"><g clip-path="url(#66b8ca2383)"><g transform="matrix(1, 0, 0, 1, 233, 49)"><g clip-path="url(#f313281984)"><g clip-path="url(#e416bd07a9)"><g clip-path="url(#a37b40e959)"><g clip-path="url(#d0a2f96758)"><path fill="#000000" d="M -10.308594 9.425781 L 11.480469 -9.242188 L 38.167969 21.910156 L 16.382812 40.578125 Z M -10.308594 9.425781 " fill-opacity="1" fill-rule="nonzero"/></g></g></g></g></g></g></g></g></g></g></svg>